<svg width="18" height="10" viewBox="0 0 18 10" fill="none" xmlns="http://www.w3.org/2000/svg">
<path d="M17.7938 5.49765C17.7936 5.49786 17.7934 5.4981 17.7931 5.49831L14.1192 9.15457C13.8439 9.42847 13.3988 9.42745 13.1248 9.15218C12.8508 8.87694 12.8519 8.43175 13.1271 8.15782L15.5938 5.70306H0.703125C0.314789 5.70306 0 5.38828 0 4.99994C0 4.6116 0.314789 4.29681 0.703125 4.29681H15.5938L13.1272 1.84206C12.8519 1.56812 12.8509 1.12294 13.1248 0.847703C13.3988 0.572394 13.844 0.571445 14.1192 0.845312L17.7932 4.50156C17.7934 4.50178 17.7936 4.50202 17.7938 4.50223C18.0692 4.77708 18.0683 5.22371 17.7938 5.49765Z" fill="#337D5A"/>
</svg>
