<svg width="96" height="33" viewBox="0 0 96 33" fill="none" xmlns="http://www.w3.org/2000/svg">
<path d="M4.84033 0.449707C4.84033 0.449707 0 1.31357 0 5.6739C0 10.0339 0 32.3448 0 32.3448C0 32.3448 0.537449 26.9719 4.84033 26.9719H96L86.7039 13.2382L96 0.449707H4.84033V0.449707Z" fill="#E1843E"/>
<path d="M12.71 18V10.9H17.97V12.31H14.35V13.73H16.1C16.9067 13.73 17.5133 13.92 17.92 14.3C18.3333 14.6733 18.54 15.18 18.54 15.82C18.54 16.26 18.45 16.6433 18.27 16.97C18.0967 17.2967 17.8367 17.55 17.49 17.73C17.1433 17.91 16.71 18 16.19 18H12.71ZM14.35 16.59H15.96C16.18 16.59 16.3533 16.55 16.48 16.47C16.6133 16.39 16.7067 16.29 16.76 16.17C16.82 16.0433 16.85 15.91 16.85 15.77C16.85 15.6367 16.8233 15.51 16.77 15.39C16.7233 15.27 16.6333 15.1767 16.5 15.11C16.3667 15.0367 16.18 15 15.94 15H14.35V16.59ZM25.0083 16.56V18H20.0183V10.9H24.9183V12.34H21.6583V13.72H24.4583V15.05H21.6583V16.56H25.0083ZM26.0774 14.39C26.0774 13.9567 26.1574 13.5333 26.3174 13.12C26.4774 12.7 26.7108 12.32 27.0174 11.98C27.3241 11.64 27.6974 11.37 28.1374 11.17C28.5774 10.9633 29.0774 10.86 29.6374 10.86C30.3041 10.86 30.8808 11.0033 31.3674 11.29C31.8608 11.5767 32.2274 11.95 32.4674 12.41L31.2074 13.29C31.1008 13.0367 30.9574 12.84 30.7774 12.7C30.6041 12.56 30.4108 12.4633 30.1974 12.41C29.9908 12.35 29.7908 12.32 29.5974 12.32C29.2841 12.32 29.0108 12.3833 28.7774 12.51C28.5441 12.63 28.3508 12.7933 28.1974 13C28.0441 13.2067 27.9308 13.4367 27.8574 13.69C27.7841 13.9433 27.7474 14.1967 27.7474 14.45C27.7474 14.73 27.7908 15 27.8774 15.26C27.9641 15.52 28.0874 15.75 28.2474 15.95C28.4141 16.15 28.6141 16.31 28.8474 16.43C29.0808 16.5433 29.3374 16.6 29.6174 16.6C29.8174 16.6 30.0208 16.5667 30.2274 16.5C30.4341 16.4333 30.6241 16.33 30.7974 16.19C30.9774 16.0433 31.1141 15.8533 31.2074 15.62L32.5474 16.41C32.4074 16.7567 32.1774 17.0533 31.8574 17.3C31.5374 17.5467 31.1741 17.7367 30.7674 17.87C30.3674 17.9967 29.9708 18.06 29.5774 18.06C29.0641 18.06 28.5908 17.9567 28.1574 17.75C27.7308 17.5367 27.3608 17.2567 27.0474 16.91C26.7408 16.5567 26.5008 16.1633 26.3274 15.73C26.1608 15.29 26.0774 14.8433 26.0774 14.39ZM34.0022 18V10.9H39.9122V18H38.2722V12.34H35.6422V18H34.0022ZM46.3262 18V12.34H44.5662L44.5262 13.43C44.4928 14.35 44.4128 15.11 44.2862 15.71C44.1662 16.31 43.9862 16.78 43.7462 17.12C43.5062 17.46 43.1995 17.7033 42.8262 17.85C42.4595 17.99 42.0195 18.06 41.5062 18.06V16.64C41.7395 16.64 41.9428 16.5933 42.1162 16.5C42.2895 16.4 42.4328 16.22 42.5462 15.96C42.6662 15.7 42.7595 15.33 42.8262 14.85C42.8995 14.3633 42.9495 13.73 42.9762 12.95L43.0462 10.9H47.9662V18H46.3262ZM51.718 10.9H53.488L55.928 18H54.248L53.698 16.41H51.488L50.948 18H49.268L51.718 10.9ZM53.428 15.28L52.598 12.55L51.748 15.28H53.428ZM61.9927 12.34H59.8327V18H58.1927V12.34H56.0227V10.9H61.9927V12.34ZM69.5037 10.9V18H67.8637V15.09H65.0337V18H63.3937V10.9H65.0337V13.65H67.8637V10.9H69.5037ZM74.5744 18.06C74.041 18.06 73.5577 17.96 73.1244 17.76C72.6977 17.5533 72.3277 17.28 72.0144 16.94C71.7077 16.5933 71.471 16.2067 71.3044 15.78C71.1377 15.3467 71.0544 14.9 71.0544 14.44C71.0544 13.9667 71.141 13.5167 71.3144 13.09C71.4944 12.6633 71.741 12.2833 72.0544 11.95C72.3744 11.61 72.751 11.3433 73.1844 11.15C73.6177 10.9567 74.091 10.86 74.6044 10.86C75.131 10.86 75.6077 10.9633 76.0344 11.17C76.4677 11.37 76.8377 11.6433 77.1444 11.99C77.4577 12.3367 77.6977 12.7267 77.8644 13.16C78.031 13.5867 78.1144 14.0233 78.1144 14.47C78.1144 14.9433 78.0277 15.3933 77.8544 15.82C77.681 16.2467 77.4344 16.63 77.1144 16.97C76.7944 17.3033 76.4177 17.57 75.9844 17.77C75.5577 17.9633 75.0877 18.06 74.5744 18.06ZM72.7244 14.46C72.7244 14.7333 72.7644 15 72.8444 15.26C72.9244 15.5133 73.041 15.74 73.1944 15.94C73.3544 16.14 73.551 16.3 73.7844 16.42C74.0177 16.54 74.2844 16.6 74.5844 16.6C74.8977 16.6 75.171 16.54 75.4044 16.42C75.6377 16.2933 75.831 16.1267 75.9844 15.92C76.1377 15.7133 76.251 15.4833 76.3244 15.23C76.4044 14.97 76.4444 14.7067 76.4444 14.44C76.4444 14.1667 76.4044 13.9033 76.3244 13.65C76.2444 13.3967 76.1244 13.17 75.9644 12.97C75.8044 12.7633 75.6077 12.6033 75.3744 12.49C75.141 12.3767 74.8777 12.32 74.5844 12.32C74.271 12.32 73.9977 12.38 73.7644 12.5C73.5377 12.62 73.3444 12.7833 73.1844 12.99C73.031 13.19 72.9144 13.42 72.8344 13.68C72.761 13.9333 72.7244 14.1933 72.7244 14.46Z" fill="white"/>
</svg>
