<svg width="49" height="64" fill="none" xmlns="http://www.w3.org/2000/svg"><path d="M.526 33.435c.16-4.68.755-9.247 2.411-13.634C5.8 12.21 11.105 7.32 18.92 5.256c1.994-.536 3.747-1.349 4.824-3.299.643-1.17 1.785-1.268 2.798-.374.771.683 1.447 1.447 2.202 2.145 1.35 1.268 2.943 2.178 4.695 2.747 8.891 2.795 13.715 9.133 14.889 18.25 1.206 9.36-.274 18.428-4.341 26.944-2.766 5.785-7.188 9.718-13.538 11.1-1.56.34-3.184.422-4.776.584-1.11.114-2.235.114-3.36.212-7.653.682-13.2-2.6-16.963-9.198-2.17-3.82-3.28-7.996-3.907-12.302-.418-2.86-.627-5.753-.916-8.63zm24.551-29.48c-.096 0-.177 0-.273-.015-1.35 1.804-3.264 2.665-5.354 3.217-3.618.96-6.866 2.617-9.535 5.298-3.698 3.673-5.627 8.24-6.576 13.293-1.141 6.095-.804 12.172.418 18.234.869 4.29 2.251 8.37 4.969 11.847 3.424 4.388 7.862 6.484 13.441 5.753.322-.049.788-.325.868-.601.933-3.153 1.142-6.29.017-9.475-1.785-5.021-2.525-10.205-1.544-15.487.595-3.266 1.447-6.484 2.347-9.685 1.528-5.396 2.782-10.807 2.139-16.463-.225-1.999-.611-3.949-.917-5.915zm-.048 57.367c.273.032.45.065.627.065 6.464-.146 11.657-2.681 15.29-8.207 2.123-3.25 3.41-6.858 4.262-10.612 1.318-5.883 2.122-11.83 1.205-17.876-1.254-8.11-5.434-13.813-13.409-16.3a14.855 14.855 0 01-4.936-2.648c-.225-.18-.45-.358-.772-.618.032.309.032.471.064.618.837 4.338 1.11 8.726.226 13.065a119.776 119.776 0 01-2.798 11.067c-2.203 7.28-2.38 14.464.322 21.646.305.83.434 1.723.562 2.617.338 2.405-.032 4.745-.643 7.183z" fill="#fff"/><path d="M9.755 34.215c-.129-1.235-.29-2.47-.402-3.705-.37-4.42.787-8.353 3.65-11.75.53-.633 1.141-.73 1.591-.34.466.406.418.99-.112 1.64-2.782 3.332-3.65 7.184-3.04 11.458.531 3.656.258 7.231-1.06 10.71-.129.357-.29.698-.483 1.023-.321.553-.804.748-1.366.439-.53-.293-.643-.78-.37-1.333.949-1.917 1.367-3.981 1.495-6.094.048-.666 0-1.349 0-2.031.032-.017.065-.017.097-.017zm12.3-17.258c-.21 2.551-.837 4.94-1.705 7.28-.273.715-.804 1.008-1.366.748-.644-.309-.692-.845-.467-1.447.74-1.982 1.367-3.997 1.383-6.126.016-1.008-.193-2.031-.402-3.006-.129-.618-.112-1.106.482-1.366.628-.26 1.158-.016 1.335.634.305 1.073.498 2.178.74 3.283zM18.79 48.402c-.112 2.08-.433 4.096-1.157 6.046-.08.195-.16.406-.257.601-.274.569-.708.845-1.303.585-.61-.26-.707-.78-.482-1.349 1.206-2.99 1.431-6.078.804-9.23-.113-.585.113-1.04.707-1.187.611-.146 1.078.13 1.19.764.193 1.268.338 2.52.499 3.77zm23.958-14.105c-.033 4.355-.804 7.686-3.04 10.563a6.256 6.256 0 01-1.109 1.154c-.418.34-.997.325-1.27-.147-.177-.325-.225-1.007-.016-1.218 3.682-3.933 3.907-8.63 3.055-13.586a1.265 1.265 0 01-.032-.244c-.097-.618.096-1.105.74-1.235.658-.13 1.077.211 1.173.894.193 1.544.386 3.055.498 3.819zm-9.841 13.537a28.176 28.176 0 01-1.173 7.833c-.177.585-.499.975-1.158.877-.563-.08-.82-.471-.82-1.023 0-.212.097-.423.16-.618 1.078-3.998 1.48-8.012.419-12.09-.129-.488-.306-.976-.466-1.463-.21-.634-.113-1.138.546-1.382.676-.244 1.062.13 1.303.732.771 2.063 1.141 4.209 1.19 6.419v.715zM34.628 19.8c-.322 3.69.402 7.2 1.977 10.531.338.716.226 1.284-.337 1.528-.691.309-1.126-.033-1.415-.634-1.72-3.543-2.476-7.28-2.219-11.23.016-.13.048-.26.065-.405.08-.65.434-.976 1.077-.927.563.033.9.488.852 1.138z" fill="#fff"/></svg>