<svg width="36" height="36" fill="none" xmlns="http://www.w3.org/2000/svg"><path d="M34.512 7.35L18.199 1.161a.558.558 0 00-.398 0L1.488 7.349a.562.562 0 00-.363.526v20.25a.563.563 0 00.361.525L17.8 34.917a.563.563 0 00.4 0l16.313-6.21a.562.562 0 00.363-.526V7.875a.562.562 0 00-.363-.526zM18 2.288l14.727 5.586L18 13.461l-4.474-1.697 7.002-2.651a.562.562 0 000-1.052l-4.196-1.592a.563.563 0 00-.4 0L7.748 9.572 3.273 7.875 18 2.289zm-9.563 8.748l2.813 1.069v8.401L8.437 19.43v-8.393zm.896-.864l6.8-2.58 2.609.99-6.802 2.58-2.607-.99zM2.25 8.69l5.063 1.92v9.207a.562.562 0 00.361.525l3.938 1.508a.563.563 0 00.763-.526V12.53l5.063 1.92v19.122L2.25 27.74V8.69zm16.313 24.885V14.45L33.75 8.69v19.104l-15.188 5.781z" fill="#C4C4C4"/><path d="M23.987 28.136l-3.383 1.287a.563.563 0 10.4 1.052l3.383-1.288a.563.563 0 10-.4-1.051zm3.372-1.284l-1.133.431a.562.562 0 10.4 1.051l1.133-.43a.563.563 0 10-.4-1.052zm-3.372-.966l-3.383 1.287a.563.563 0 10.4 1.052l3.383-1.288a.563.563 0 10-.4-1.051zm3.372-1.284l-1.133.431a.562.562 0 10.4 1.051l1.133-.43a.563.563 0 10-.4-1.052zm-3.372-.966l-3.383 1.287a.563.563 0 10.4 1.052l3.383-1.288a.563.563 0 10-.4-1.051zm3.372-1.284l-1.133.431a.562.562 0 10.4 1.051l1.133-.43a.563.563 0 10-.4-1.052z" fill="#C4C4C4"/></svg>