<svg width="45" height="45" fill="none" xmlns="http://www.w3.org/2000/svg"><path d="M44.261 19.201h-2.536v-3.42a.734.734 0 00-.729-.73h-4.11v-3.43a.734.734 0 00-.729-.728h-4.839a.734.734 0 00-.729.729V19.2H14.276v-7.58a.734.734 0 00-.73-.728H8.708a.734.734 0 00-.73.729v3.42h-4.11a.734.734 0 00-.728.729v3.42H.729a.734.734 0 00-.729.73v5.033c0 .398.33.728.729.728h2.42v3.547c0 .399.33.729.728.729h4.11v3.42c0 .399.33.73.73.73h4.838c.399 0 .73-.331.73-.73v-7.705h16.314v7.705c0 .399.33.73.729.73h4.84a.734.734 0 00.728-.73v-3.42h4.11c.399 0 .729-.33.729-.729v-3.547h2.536c.399 0 .729-.33.729-.728V19.92a.74.74 0 00-.739-.719zM3.148 24.235h-1.69v-3.576h1.69v3.576zm4.84 4.275H4.605v-12h3.381v12zm4.829 4.15H9.435V12.35h3.382v20.31zm17.773-8.425H14.274v-3.576H30.59v3.576zm4.839 8.424h-3.382V12.351h3.382v20.308zm4.839-4.149h-3.382v-12h3.382v12zm3.265-4.285h-1.808v-3.566h1.808v3.566z" fill="#C4C4C4"/></svg>