<svg width="96" height="33" fill="none" xmlns="http://www.w3.org/2000/svg"><path d="M4.84.45S0 1.314 0 5.674v26.67s.537-5.372 4.84-5.372H96l-9.296-13.734L96 .45H4.84z" fill="#E1843E"/><path d="M12.71 18v-7.1h5.26v1.41h-3.62v1.42h1.75c.807 0 1.413.19 1.82.57.413.373.62.88.62 1.52 0 .44-.09.823-.27 1.15a1.79 1.79 0 01-.78.76c-.347.18-.78.27-1.3.27h-3.48zm1.64-1.41h1.61c.22 0 .393-.04.52-.12a.67.67 0 00.28-.3.926.926 0 00.01-.78.526.526 0 00-.27-.28c-.133-.073-.32-.11-.56-.11h-1.59v1.59zm10.658-.03V18h-4.99v-7.1h4.9v1.44h-3.26v1.38h2.8v1.33h-2.8v1.51h3.35zm1.07-2.17c0-.433.08-.857.24-1.27.16-.42.393-.8.7-1.14.306-.34.68-.61 1.12-.81.44-.207.94-.31 1.5-.31.666 0 1.243.143 1.73.43.493.287.86.66 1.1 1.12l-1.26.88a1.43 1.43 0 00-.43-.59 1.486 1.486 0 00-.58-.29 2.148 2.148 0 00-.6-.09c-.314 0-.587.063-.82.19a1.64 1.64 0 00-.58.49 2.155 2.155 0 00-.34.69c-.074.253-.11.507-.11.76 0 .28.043.55.13.81.086.26.21.49.37.69.166.2.366.36.6.48.233.113.49.17.77.17.2 0 .403-.033.61-.1.206-.067.396-.17.57-.31a1.38 1.38 0 00.41-.57l1.34.79c-.14.347-.37.643-.69.89a3.61 3.61 0 01-1.09.57c-.4.127-.797.19-1.19.19-.514 0-.987-.103-1.42-.31a3.73 3.73 0 01-1.11-.84 4.128 4.128 0 01-.72-1.18 3.757 3.757 0 01-.25-1.34zM34.001 18v-7.1h5.91V18h-1.64v-5.66h-2.63V18h-1.64zm12.324 0v-5.66h-1.76l-.04 1.09c-.033.92-.113 1.68-.24 2.28-.12.6-.3 1.07-.54 1.41a2.01 2.01 0 01-.92.73c-.367.14-.806.21-1.32.21v-1.42c.233 0 .437-.047.61-.14.173-.1.317-.28.43-.54.12-.26.214-.63.28-1.11a17.2 17.2 0 00.15-1.9l.07-2.05h4.92V18h-1.64zm5.392-7.1h1.77l2.44 7.1h-1.68l-.55-1.59h-2.21l-.54 1.59h-1.68l2.45-7.1zm1.71 4.38l-.83-2.73-.85 2.73h1.68zm8.565-2.94h-2.16V18h-1.64v-5.66h-2.17V10.9h5.97v1.44zm7.51-1.44V18h-1.64v-2.91h-2.83V18h-1.64v-7.1h1.64v2.75h2.83V10.9h1.64zm5.071 7.16a3.42 3.42 0 01-1.45-.3 3.669 3.669 0 01-1.11-.82 3.854 3.854 0 01-.71-1.16 3.702 3.702 0 01-.25-1.34c0-.473.087-.923.26-1.35.18-.427.427-.807.74-1.14a3.446 3.446 0 012.55-1.09 3.23 3.23 0 011.43.31c.434.2.804.473 1.11.82.314.347.554.737.72 1.17.167.427.25.863.25 1.31 0 .473-.086.923-.26 1.35-.173.427-.42.81-.74 1.15a3.7 3.7 0 01-1.13.8c-.426.193-.896.29-1.41.29zm-1.85-3.6c0 .273.04.54.12.8.08.253.197.48.35.68a1.724 1.724 0 001.39.66c.314 0 .587-.06.82-.18.234-.127.427-.293.58-.5.154-.207.267-.437.34-.69a2.672 2.672 0 000-1.58c-.08-.253-.2-.48-.36-.68a1.647 1.647 0 00-.59-.48 1.786 1.786 0 00-.79-.17c-.313 0-.586.06-.82.18-.226.12-.42.283-.58.49-.153.2-.27.43-.35.69a2.8 2.8 0 00-.11.78z" fill="#fff"/></svg>