<svg width="16" height="18" viewBox="0 0 16 18" fill="none" xmlns="http://www.w3.org/2000/svg">
<path d="M14.926 6.07934C14.5392 5.80267 14.2607 5.36873 14.3095 4.9432C14.4817 3.44121 13.55 2.15836 12.0439 1.92429C11.7765 1.88267 11.5102 1.76924 11.2691 1.64166C10.8147 1.40105 10.3412 1.31244 9.85155 1.44736C9.58713 1.52029 9.42443 1.48774 9.21428 1.29977C8.01548 0.227364 6.13669 0.610634 5.54936 2.06616C5.38075 2.4842 5.1314 2.7282 4.74047 2.88724C4.65319 2.92277 4.5574 2.96287 4.4954 3.02849C4.30026 3.23497 4.1143 3.18403 3.87789 3.08467C2.35173 2.4424 0.708183 3.49924 0.644574 5.13357C0.635544 5.367 0.537573 5.62043 0.410847 5.8217C-0.0428307 6.5429 -0.123051 7.26642 0.181497 8.01606C-0.0378073 8.55733 0.153452 9.23219 0.693637 9.62368C1.28637 10.0534 1.96989 9.82915 2.49371 9.41321C2.64198 9.3993 2.79286 9.36961 2.9469 9.32302C3.25483 9.22972 3.53285 9.11828 3.79249 9.24251C3.8336 9.27269 3.87585 9.29951 3.91872 9.32427C3.93019 9.33371 3.94162 9.34254 3.95306 9.35307C3.95457 9.35073 3.95583 9.34884 3.95734 9.3465C4.04283 9.39208 4.13149 9.42661 4.22229 9.45295C4.72601 11.2119 5.80885 12.7525 7.29584 13.8444C7.2052 14.9203 6.91535 15.9751 6.37529 17.0087C5.77248 17.3728 5.03706 17.1094 4.40584 16.9367C3.84781 16.784 3.30448 16.7278 2.74735 16.9034C2.63205 16.9398 2.57837 17.0299 2.5727 17.1232C2.57196 17.1258 2.57082 17.1279 2.57017 17.1307C2.52792 17.3101 2.48567 17.4894 2.44341 17.6687C2.40394 17.8366 2.52629 17.9515 2.65893 17.9741C2.67967 17.9793 2.70167 17.9829 2.72608 17.9829H13.0367C13.1271 17.9829 13.1914 17.9437 13.2313 17.888C13.2907 17.8421 13.3301 17.7719 13.3301 17.693V17.3203C13.3301 17.2099 13.2536 17.1155 13.1512 17.084C13.1121 17.0514 13.0605 17.0304 12.9947 17.0304H9.87925C9.72448 16.8537 9.56691 16.6753 9.40422 16.4988C8.95156 16.0077 8.75188 15.4611 8.95535 14.7998C9.02601 14.57 9.07693 14.3311 9.10633 14.0927C9.1932 13.3863 9.27444 12.6766 9.35682 11.9565C10.4025 11.8581 11.348 11.4176 12.0821 10.6702C12.3866 10.6695 12.66 10.5803 12.8879 10.4288L12.9794 10.4007C13.4762 10.7968 14.2425 10.8377 14.8214 10.6265C15.3578 10.4308 15.8217 9.90068 15.8379 9.3179C15.8394 9.26334 15.8366 9.20932 15.8319 9.15576C16.2495 8.09319 15.8676 6.75297 14.926 6.07934ZM5.83168 9.28039C5.8376 9.27817 5.8425 9.2764 5.84839 9.27418C5.95641 9.23356 6.14465 9.28015 6.24185 9.35478C6.3789 9.46013 6.50852 9.57493 6.63528 9.6917C6.6378 9.70163 6.63793 9.71083 6.64107 9.72103C6.83458 10.36 7.02812 10.999 7.2216 11.638C7.26776 11.96 7.29716 12.2799 7.31313 12.5982C6.3119 11.7847 5.76416 10.5769 5.83168 9.28039ZM9.58793 11.1272C9.6332 11.02 9.67856 10.913 9.72575 10.8064C9.74146 10.8064 9.7573 10.8064 9.77302 10.8063C9.77302 10.7693 9.77388 10.7323 9.77515 10.6952C9.90428 10.4091 10.0454 10.1293 10.2038 9.86198C10.4056 10.0378 10.6158 10.1957 10.8398 10.3245C10.4648 10.6519 10.0445 10.9208 9.58793 11.1272Z" fill="#337D5A"/>
</svg>
