<svg width="11" height="11" fill="none" xmlns="http://www.w3.org/2000/svg"><path d="M5.5 5.38c1.223 0 2.215-1.205 2.215-2.69C7.715 1.204 7.389 0 5.5 0 3.611 0 3.285 1.204 3.285 2.69c0 1.485.992 2.69 2.215 2.69zM1.317 9.487c0-.026 0-.09 0 0zm8.366.071c0-.172 0-.025 0 0zm-.005-.18c-.041-2.588-.379-3.325-2.965-3.792 0 0-.364.464-1.213.464-.849 0-1.213-.464-1.213-.464-2.558.462-2.916 1.188-2.964 3.708-.003.206-.005.217-.006.193v.272S1.933 11 5.5 11c3.567 0 4.183-1.241 4.183-1.241v-.201a1.67 1.67 0 01-.005-.18z" fill="#93B474"/></svg>