<svg width="16" height="18" fill="none" xmlns="http://www.w3.org/2000/svg"><path d="M14.926 6.08c-.387-.277-.665-.711-.617-1.137.173-1.502-.759-2.785-2.265-3.019a2.543 2.543 0 01-.775-.282c-.454-.241-.928-.33-1.417-.195-.265.073-.428.04-.638-.147C8.015.227 6.137.61 5.55 2.066c-.168.418-.418.662-.809.821a.696.696 0 00-.245.141c-.195.207-.38.156-.617.057A2.312 2.312 0 00.645 5.134a1.468 1.468 0 01-.234.688c-.454.72-.534 1.444-.23 2.194-.219.541-.028 1.216.513 1.608.592.43 1.276.205 1.8-.21.148-.015.299-.044.453-.091.308-.093.586-.205.845-.08.042.03.084.057.127.081l.034.03.004-.007c.086.045.174.08.265.106a8.284 8.284 0 003.074 4.391 8.245 8.245 0 01-.92 3.165c-.604.364-1.339.1-1.97-.072-.558-.153-1.102-.21-1.659-.034a.239.239 0 00-.174.22l-.003.008-.127.538c-.04.168.083.282.216.305.02.005.043.009.067.009h10.31a.23.23 0 00.195-.095.247.247 0 00.1-.195v-.373a.25.25 0 00-.18-.236.237.237 0 00-.156-.054H9.879a28.054 28.054 0 00-.475-.531c-.452-.491-.652-1.038-.449-1.7.071-.229.122-.468.151-.706.087-.707.168-1.416.25-2.136a4.34 4.34 0 002.726-1.287c.305 0 .578-.09.806-.241l.091-.028c.497.396 1.264.437 1.842.226.537-.196 1-.726 1.017-1.31a1.41 1.41 0 00-.006-.161c.418-1.063.036-2.403-.906-3.077zm-9.094 3.2l.016-.006c.108-.04.297.006.394.08.137.106.267.22.393.338l.006.029.58 1.917c.047.322.076.642.092.96A3.972 3.972 0 015.832 9.28zm3.756 1.847c.045-.107.09-.214.138-.32h.047c0-.038 0-.075.002-.112.13-.286.27-.566.429-.833.202.176.412.334.636.463a5.08 5.08 0 01-1.252.802z" fill="#337D5A"/></svg>